STARTFONT 2.1
FONT -Adobe-ITC Zapf Dingbats-Medium-R-Normal--25-180-100-100-P-184-ADOBE-FONTSPECIFIC
SIZE 18 100 100
FONTBOUNDINGBOX 23 24 0 -4

STARTPROPERTIES 26
_DEC_DEVICE_FONTNAMES "PS=ZapfDingbats"
FONTNAME_REGISTRY ""
FAMILY_NAME "ITC Zapf Dingbats"
FOUNDRY "Adobe"
WEIGHT_NAME "Medium"
SLANT "R"
SETWIDTH_NAME "Normal"
ADD_STYLE_NAME ""
PIXEL_SIZE 25
POINT_SIZE 180
RESOLUTION_X 100
RESOLUTION_Y 100
SPACING "P"
AVERAGE_WIDTH 184
CHARSET_REGISTRY "ADOBE"
CHARSET_ENCODING "FONTSPECIFIC"
CHARSET_COLLECTIONS "FONTSPECIFIC"
FULL_NAME "ITC Zapf Dingbats"
COPYRIGHT "Copyright (c) 1991 Adobe Systems, Inc."
CAP_HEIGHT 19
X_HEIGHT 14
WEIGHT 10
QUAD_WIDTH 14
DEFAULT_CHAR 0
FONT_DESCENT 4
FONT_ASCENT 20
ENDPROPERTIES

CHARS 188

STARTCHAR space
ENCODING 32
SWIDTH 486 0
DWIDTH 12 0
BBX 1 1 0 0
BITMAP
00
ENDCHAR

STARTCHAR a1
ENCODING 33
SWIDTH 974 0
DWIDTH 24 0
BBX 22 14 1 2
BITMAP
3C0000
660000
420000
660000
3E0000
038000
01C000
00FFE0
01FFF8
7FFFFC
CC3C00
841E00
CC0F00
780780
ENDCHAR

STARTCHAR a2
ENCODING 34
SWIDTH 961 0
DWIDTH 23 0
BBX 21 13 1 2
BITMAP
780000
CC0000
8400F8
CE07F0
7F9FC0
01FF00
00F800
01FF00
7F9FC0
CE07F0
8400F8
CC0000
780000
ENDCHAR

STARTCHAR a202
ENCODING 35
SWIDTH 974 0
DWIDTH 24 0
BBX 22 14 1 2
BITMAP
780780
CC0F00
841E00
CC3C00
7FFFFC
01FFF8
00FFE0
01C000
038000
3E0000
660000
420000
660000
3C0000
ENDCHAR

STARTCHAR a3
ENCODING 36
SWIDTH 980 0
DWIDTH 24 0
BBX 22 18 1 0
BITMAP
3C0000
7E0030
E600FC
C3038C
C30E38
E638E0
7FE380
1FEE00
013000
013000
1FFE00
7FE380
6638E0
C30E38
C3038C
E600FC
7E0030
3C0000
ENDCHAR

STARTCHAR a4
ENCODING 37
SWIDTH 719 0
DWIDTH 17 0
BBX 15 12 1 3
BITMAP
0FE0
7FFC
FFFE
F45E
97D2
EEEE
0C60
1830
1C70
3EF8
3FF8
3FF8
ENDCHAR

STARTCHAR a5
ENCODING 38
SWIDTH 789 0
DWIDTH 20 0
BBX 18 18 1 0
BITMAP
07F800
1C0E00
303300
607980
40F480
C1ECC0
83F840
873040
8E0040
8E0040
9F8040
9E8040
DD80C0
4F0080
1A0180
180300
0E0E00
03F800
ENDCHAR

STARTCHAR a119
ENCODING 39
SWIDTH 790 0
DWIDTH 20 0
BBX 18 18 1 0
BITMAP
03F000
0EDC00
39E700
21E100
61E180
41E080
C120C0
80C040
81E040
85E840
8EDC40
DF3EC0
7E1F80
7C0F80
280500
380700
0E1C00
03F000
ENDCHAR

STARTCHAR a118
ENCODING 40
SWIDTH 791 0
DWIDTH 19 0
BBX 17 18 1 0
BITMAP
070000
030000
03E000
01C000
01F000
00E000
C0F000
E0F000
7FFF80
7FFF80
E0F000
C0F000
00E000
01F000
01C000
03E000
030000
070000
ENDCHAR

STARTCHAR a117
ENCODING 41
SWIDTH 690 0
DWIDTH 17 0
BBX 15 11 1 3
BITMAP
FFFE
E00E
B01A
9BB2
8FE2
87C2
8FE2
9BB2
B01A
E00E
FFFE
ENDCHAR

STARTCHAR a11
ENCODING 42
SWIDTH 960 0
DWIDTH 24 0
BBX 22 11 1 3
BITMAP
00FC00
23FFC0
5FFFF8
DFFFFC
BFFEF8
BFFE00
BFFE00
BFFC00
DFFC00
6FF800
21F000
ENDCHAR

STARTCHAR a12
ENCODING 43
SWIDTH 939 0
DWIDTH 23 0
BBX 21 11 1 3
BITMAP
01F7C0
FF3838
EC0C08
E827F0
E85E00
E9C700
E87D00
E82300
EE1900
F98600
007C00
ENDCHAR

STARTCHAR a13
ENCODING 44
SWIDTH 549 0
DWIDTH 14 0
BBX 12 18 1 0
BITMAP
1040
28A0
28A0
28A0
2520
3540
1740
1FC0
3860
4C10
6790
7310
9E10
CC20
AC20
5640
3080
0F00
ENDCHAR

STARTCHAR a14
ENCODING 45
SWIDTH 855 0
DWIDTH 21 0
BBX 19 14 1 3
BITMAP
000C00
001C00
003800
07F000
08E000
11D3C0
139BE0
278660
4E8260
4C0260
7F8260
600260
B80660
EFFBC0
ENDCHAR

STARTCHAR a15
ENCODING 46
SWIDTH 911 0
DWIDTH 20 0
BBX 18 18 1 0
BITMAP
1F0000
318000
61C000
C96000
99B000
93D800
866C00
FC3600
6C1B00
360D80
1B0780
0D8340
06C140
036640
01B440
00F840
0060C0
001FC0
ENDCHAR

STARTCHAR a16
ENCODING 47
SWIDTH 933 0
DWIDTH 23 0
BBX 21 11 1 3
BITMAP
3FFC00
700700
980280
8FFE40
A80130
A80138
A80130
8FFE40
980280
700700
3FFE00
ENDCHAR

STARTCHAR a105
ENCODING 48
SWIDTH 667 0
DWIDTH 20 0
BBX 18 18 1 0
BITMAP
001FC0
0060C0
00F840
01B440
036640
06C140
0D8340
1B0780
360D80
6C1B00
FC3600
866C00
93D800
99B000
C96000
61C000
318000
1F0000
ENDCHAR

STARTCHAR a17
ENCODING 49
SWIDTH 945 0
DWIDTH 23 0
BBX 21 13 1 2
BITMAP
000E00
001900
3E1080
432040
C1CC60
801E70
801FF8
801E70
C1CC60
432040
3E1080
001900
000E00
ENDCHAR

STARTCHAR a18
ENCODING 50
SWIDTH 974 0
DWIDTH 23 0
BBX 21 13 1 2
BITMAP
000E00
001F00
3E1F80
7F3FC0
FFFFE0
FFF9F8
FFF000
FFF9F8
FFFFE0
7F3FC0
3E1F80
001F00
000E00
ENDCHAR

STARTCHAR a19
ENCODING 51
SWIDTH 755 0
DWIDTH 19 0
BBX 17 18 1 0
BITMAP
000300
000F80
001F80
003F00
003F00
007E00
00FC00
01F800
01F800
03F000
73E000
FFE000
FFC000
FF8000
FF8000
7F0000
7E0000
3C0000
ENDCHAR

STARTCHAR a20
ENCODING 52
SWIDTH 846 0
DWIDTH 21 0
BBX 18 18 1 0
BITMAP
0000C0
0001C0
0003C0
0007C0
000F80
301F00
703E00
F07C00
F8FC00
F9F800
FBF000
FFE000
FFC000
FF8000
FF0000
FE0000
7C0000
380000
ENDCHAR

STARTCHAR a21
ENCODING 53
SWIDTH 762 0
DWIDTH 19 0
BBX 17 17 1 0
BITMAP
C00180
E00380
700700
380E00
1C1C00
0E3800
077000
03E000
01C000
03E000
077000
0E3800
1C1C00
380E00
700700
E00380
C00180
ENDCHAR

STARTCHAR a22
ENCODING 54
SWIDTH 761 0
DWIDTH 20 0
BBX 18 18 1 0
BITMAP
080400
1C0E00
3E1F00
7F3F80
FFFFC0
7FFF80
3FFF00
1FFE00
0FFC00
0FFC00
1FFE00
3FFF00
7FFF80
FFFFC0
7F3F80
3E1F00
1C0E00
080400
ENDCHAR

STARTCHAR a23
ENCODING 55
SWIDTH 571 0
DWIDTH 16 0
BBX 14 18 1 0
BITMAP
001C
0C3C
0E78
0E70
06E0
07E0
07C0
0380
07C0
0FC0
1EE0
1CE0
3C70
7870
7820
F000
F000
6000
ENDCHAR

STARTCHAR a24
ENCODING 56
SWIDTH 677 0
DWIDTH 17 0
BBX 15 18 1 0
BITMAP
0004
180E
3C1E
3C3E
1E7C
1FF8
0FF0
0FE0
07C0
0FC0
1FE0
3FF0
7EF8
7CFC
FC7C
F878
7020
2000
ENDCHAR

STARTCHAR a25
ENCODING 57
SWIDTH 763 0
DWIDTH 20 0
BBX 18 18 1 0
BITMAP
03F000
021000
02D000
02D000
02D000
02D000
FEDFC0
80C040
BFFF40
BFFF40
80C040
FEDFC0
02D000
02D000
02D000
02D000
021000
03F000
ENDCHAR

STARTCHAR a26
ENCODING 58
SWIDTH 760 0
DWIDTH 20 0
BBX 18 18 1 0
BITMAP
03F000
03F000
03F000
03F000
03F000
03F000
FFFFC0
FFFFC0
FFFFC0
FFFFC0
FFFFC0
FFFFC0
03F000
03F000
03F000
03F000
03F000
03F000
ENDCHAR

STARTCHAR a27
ENCODING 59
SWIDTH 759 0
DWIDTH 19 0
BBX 17 17 1 0
BITMAP
01C000
01C000
01C000
01C000
01C000
01C000
01C000
FE3F80
FE3F80
FE3F80
01C000
01C000
01C000
01C000
01C000
01C000
01C000
ENDCHAR

STARTCHAR a28
ENCODING 60
SWIDTH 754 0
DWIDTH 20 0
BBX 18 18 1 0
BITMAP
03F000
03F000
03F000
03F000
03F000
03F000
FC0FC0
FC0FC0
FC0FC0
FC0FC0
FC0FC0
FC0FC0
03F000
03F000
03F000
03F000
03F000
03F000
ENDCHAR

STARTCHAR a6
ENCODING 61
SWIDTH 494 0
DWIDTH 12 0
BBX 10 18 1 0
BITMAP
0C00
0C00
0C00
0C00
0C00
FFC0
FFC0
0C00
0C00
0C00
0C00
0C00
0C00
0C00
0C00
0C00
0C00
0C00
ENDCHAR

STARTCHAR a7
ENCODING 62
SWIDTH 552 0
DWIDTH 13 0
BBX 11 18 1 0
BITMAP
1E00
1300
1300
1300
F3C0
8060
8060
F3E0
73E0
1300
1300
1300
1300
1300
1300
1300
1F00
0F00
ENDCHAR

STARTCHAR a8
ENCODING 63
SWIDTH 537 0
DWIDTH 13 0
BBX 11 18 1 0
BITMAP
1F00
1100
1500
1500
F5E0
8420
BFA0
8420
F5E0
1500
1500
1500
1500
1500
1500
1500
1100
1F00
ENDCHAR

STARTCHAR a9
ENCODING 64
SWIDTH 577 0
DWIDTH 15 0
BBX 13 13 1 2
BITMAP
3FE0
0FC0
8708
8708
C218
F278
FFF8
F278
C218
8708
8708
0F80
3FE0
ENDCHAR

STARTCHAR a10
ENCODING 65
SWIDTH 692 0
DWIDTH 17 0
BBX 15 17 1 0
BITMAP
0100
0380
0280
06C0
FFFE
C826
5834
701C
3018
701C
5834
C826
FFFE
06C0
0280
0380
0100
ENDCHAR

STARTCHAR a29
ENCODING 66
SWIDTH 786 0
DWIDTH 20 0
BBX 18 18 1 0
BITMAP
01E000
03F000
03F000
03F000
01E000
01E000
70C380
FCCFC0
FFFFC0
FFFFC0
FCCFC0
70C380
01E000
01E000
03F000
03F000
03F000
01E000
ENDCHAR

STARTCHAR a30
ENCODING 67
SWIDTH 788 0
DWIDTH 19 0
BBX 17 17 1 0
BITMAP
01C000
03E000
03E000
03E000
01C000
008000
708700
F9CF80
FFFF80
F9CF80
708700
008000
01C000
03E000
03E000
03E000
01C000
ENDCHAR

STARTCHAR a31
ENCODING 68
SWIDTH 788 0
DWIDTH 20 0
BBX 18 18 1 0
BITMAP
03F000
07F800
07F800
07F800
03F000
71E380
F8C7C0
FCCFC0
FFFFC0
FFFFC0
FCCFC0
F8C7C0
71E380
03F000
07F800
07F800
07F800
03F000
ENDCHAR

STARTCHAR a32
ENCODING 69
SWIDTH 790 0
DWIDTH 19 0
BBX 17 17 1 0
BITMAP
01C000
01C000
07F000
07F000
07F000
388E00
388E00
F88F80
FFFF80
F88F80
388E00
388E00
07F000
07F000
07F000
01C000
01C000
ENDCHAR

STARTCHAR a33
ENCODING 70
SWIDTH 793 0
DWIDTH 19 0
BBX 17 17 1 0
BITMAP
008000
008000
01C000
01C000
03E000
07F000
0FF800
3FFE00
FFFF80
3FFE00
0FF800
07F000
03E000
01C000
01C000
008000
008000
ENDCHAR

STARTCHAR a34
ENCODING 71
SWIDTH 794 0
DWIDTH 21 0
BBX 19 19 1 0
BITMAP
004000
004000
00E000
00E000
01B000
01B000
03B800
0F1E00
3E0F80
F001E0
3E0F80
0F1E00
03B800
01B000
01B000
00E000
00E000
004000
004000
ENDCHAR

STARTCHAR a35
ENCODING 72
SWIDTH 816 0
DWIDTH 19 0
BBX 17 18 1 0
BITMAP
008000
008000
01C000
01C000
01C000
03E000
03E000
FFFF80
7FFF00
1FFC00
0FF800
07F000
0FF800
0FF800
0F7800
1E3C00
1C1C00
100400
ENDCHAR

STARTCHAR a36
ENCODING 73
SWIDTH 823 0
DWIDTH 21 0
BBX 19 19 1 0
BITMAP
004000
004000
00E000
00A000
00A000
01B000
011000
FF1FE0
6000C0
380380
1C0700
060C00
060C00
044400
0CE600
09B200
0B1A00
1E0F00
180300
ENDCHAR

STARTCHAR a37
ENCODING 74
SWIDTH 789 0
DWIDTH 20 0
BBX 18 18 1 0
BITMAP
03F000
0F3C00
3F3F00
3F3F00
7E1F80
7E1F80
800040
E001C0
F003C0
FC0FC0
FC0FC0
F807C0
78C780
71E380
33F300
37FB00
0FFC00
03F000
ENDCHAR

STARTCHAR a38
ENCODING 75
SWIDTH 841 0
DWIDTH 21 0
BBX 19 17 1 0
BITMAP
004000
004000
00E000
00E000
00E000
01F000
FFFFE0
7F1FC0
1E0F00
060E00
020800
071C00
07FC00
0FBE00
0F1E00
0C0600
180300
ENDCHAR

STARTCHAR a39
ENCODING 76
SWIDTH 823 0
DWIDTH 21 0
BBX 19 19 1 0
BITMAP
004000
004000
00E000
00A000
00A000
01B000
011000
FFFFE0
61F0C0
39F380
1FFF00
07FC00
07FC00
04E400
0CE600
09B200
0B1A00
1E0F00
180300
ENDCHAR

STARTCHAR a40
ENCODING 77
SWIDTH 833 0
DWIDTH 22 0
BBX 19 19 1 0
BITMAP
004000
004000
00E000
00A000
00A000
01F000
015000
FF5FE0
64E4C0
3BFB80
1DF700
06EC00
06AC00
055400
0EEE00
09B200
0B1A00
1E0F00
180300
ENDCHAR

STARTCHAR a41
ENCODING 78
SWIDTH 816 0
DWIDTH 21 0
BBX 19 19 1 0
BITMAP
004000
004000
00E000
00A000
00A000
01B000
015000
FF5FE0
60E0C0
3BFB80
1DF700
06EC00
06AC00
055400
0CE600
09B200
0B1A00
1E0F00
180300
ENDCHAR

STARTCHAR a42
ENCODING 79
SWIDTH 831 0
DWIDTH 21 0
BBX 19 19 1 0
BITMAP
004000
004000
00E000
00A000
00A000
01B000
013000
FF3FE0
5F31C0
23A780
18EF00
067C00
07A400
062400
0E7200
0CBA00
091E00
1E0F00
180300
ENDCHAR

STARTCHAR a43
ENCODING 80
SWIDTH 923 0
DWIDTH 22 0
BBX 20 19 1 0
BITMAP
006000
006000
00F000
00B000
00B800
01B800
011C00
FF1FF0
6000E0
3803C0
1C0780
060F00
060E00
044600
0CE700
09F300
0B9B80
1F0F80
1C0380
ENDCHAR

STARTCHAR a44
ENCODING 81
SWIDTH 744 0
DWIDTH 20 0
BBX 18 18 1 0
BITMAP
01E000
01E000
01E000
31E300
79E780
FDEFC0
7FFF80
1FFE00
07F800
07F800
1FFE00
7FFF80
FDEFC0
79E780
31E300
01E000
01E000
01E000
ENDCHAR

STARTCHAR a45
ENCODING 82
SWIDTH 723 0
DWIDTH 19 0
BBX 17 18 1 0
BITMAP
01C000
01C000
01C000
21C200
71C700
F9CF80
7DDF00
1E3C00
063000
063000
1FFC00
7DDF00
F9CF80
71C700
21C200
01C000
01C000
01C000
ENDCHAR

STARTCHAR a46
ENCODING 83
SWIDTH 749 0
DWIDTH 21 0
BBX 19 19 1 0
BITMAP
004000
004000
204080
304180
184300
0C4600
064C00
03F800
01F000
FFFFE0
01F000
03F800
064C00
0C4600
184300
304180
204080
004000
004000
ENDCHAR

STARTCHAR a47
ENCODING 84
SWIDTH 790 0
DWIDTH 20 0
BBX 18 18 1 0
BITMAP
00C000
00C000
10C200
38C700
1CCE00
0EDC00
07F800
03F000
FFFFC0
FFFFC0
03F000
07F800
0EDC00
1CCE00
38C700
10C200
00C000
00C000
ENDCHAR

STARTCHAR a48
ENCODING 85
SWIDTH 792 0
DWIDTH 20 0
BBX 18 18 1 0
BITMAP
008000
00C000
01C000
3F7F00
177A00
0B7400
05E800
3EDF00
FFE1C0
61FF80
1EDE00
0DEC00
1BB600
17BA00
3FBF00
00E000
00C000
004000
ENDCHAR

STARTCHAR a49
ENCODING 86
SWIDTH 695 0
DWIDTH 19 0
BBX 17 19 1 0
BITMAP
008000
008000
008000
01C000
C1C180
71C700
3DDE00
1FFC00
0FF800
07F000
0FF800
1FFC00
3DDE00
71C700
C1C180
01C000
008000
008000
008000
ENDCHAR

STARTCHAR a50
ENCODING 87
SWIDTH 776 0
DWIDTH 20 0
BBX 18 18 1 0
BITMAP
040800
061800
061800
073800
07F800
F3F3C0
7FFF80
3FFF00
0FFC00
0FFC00
3FFF00
7FFF80
FBF7C0
03F000
073800
061800
061800
040800
ENDCHAR

STARTCHAR a51
ENCODING 88
SWIDTH 768 0
DWIDTH 19 0
BBX 17 17 1 0
BITMAP
080800
0C1800
0E3800
0F7800
FFFF80
7FFF00
3FFE00
1FFC00
0FF800
1FFC00
3FFE00
7FFF00
FFFF80
0F7800
0E3800
0C1800
080800
ENDCHAR

STARTCHAR a52
ENCODING 89
SWIDTH 792 0
DWIDTH 20 0
BBX 18 18 1 0
BITMAP
00C000
0CCC00
0CCC00
06D800
66D980
7BF780
1FFE00
07F800
FFFFC0
FFFFC0
07F800
1FFE00
7BF780
66D980
06D800
0CCC00
0CCC00
00C000
ENDCHAR

STARTCHAR a53
ENCODING 90
SWIDTH 759 0
DWIDTH 19 0
BBX 17 17 1 0
BITMAP
049000
049000
22A200
12A400
0AA800
E49180
3FFE00
03E000
FFFF80
03E000
3FFE00
E49380
0AA800
12A400
22A200
049000
049000
ENDCHAR

STARTCHAR a54
ENCODING 91
SWIDTH 700 0
DWIDTH 17 0
BBX 15 17 1 0
BITMAP
0100
0380
0380
4384
E38E
F11E
783C
0BA0
0380
0BA0
783C
F11E
E38E
4384
0380
0380
0100
ENDCHAR

STARTCHAR a55
ENCODING 92
SWIDTH 708 0
DWIDTH 18 0
BBX 15 17 1 0
BITMAP
0100
0380
0380
638C
F39E
F93E
7FFC
1C70
0440
1C70
7FFC
F93E
F39E
638C
0380
0380
0100
ENDCHAR

STARTCHAR a56
ENCODING 93
SWIDTH 682 0
DWIDTH 17 0
BBX 15 17 1 0
BITMAP
0380
07C0
07C0
739C
F39E
FBBE
FD7E
3FF8
0380
3FF8
FD7E
FBBE
F39E
739C
07C0
07C0
0380
ENDCHAR

STARTCHAR a57
ENCODING 94
SWIDTH 696 0
DWIDTH 17 0
BBX 15 17 1 0
BITMAP
0380
0440
0440
644C
F29E
FABE
FBBE
7EFC
0440
7FFC
C926
8BA2
D396
67CC
07C0
07C0
0380
ENDCHAR

STARTCHAR a58
ENCODING 95
SWIDTH 813 0
DWIDTH 21 0
BBX 19 18 1 0
BITMAP
00E000
01F000
03F800
03F800
3BFB80
7DF7C0
FFFFE0
FF1FE0
FE0FE0
7E0FC0
3E0F80
071C00
1FFF00
3FFF80
3FFF80
3FBF80
1FBF00
0F1E00
ENDCHAR

STARTCHAR a59
ENCODING 96
SWIDTH 802 0
DWIDTH 21 0
BBX 19 18 1 0
BITMAP
00E000
01F000
031800
024800
3A4B80
6F5EC0
C75860
935920
CCE660
63F8C0
3FFF80
06F400
1C9700
316980
22E480
34A380
19B300
0F1E00
ENDCHAR

STARTCHAR a60
ENCODING 97
SWIDTH 789 0
DWIDTH 20 0
BBX 18 18 1 0
BITMAP
01E000
06D000
1ADE00
3AD700
3DEF00
2EDD00
77FB80
8B3440
FE1FC0
FE1FC0
8B3440
77FB80
2EDD00
3DEF00
3AD700
1EDE00
02D000
01E000
ENDCHAR

STARTCHAR a61
ENCODING 98
SWIDTH 789 0
DWIDTH 19 0
BBX 17 17 1 0
BITMAP
07F000
1F7C00
3E3E00
63E300
663300
EC1B80
F80F80
D00580
900480
D00580
F80F80
EC1B80
663300
63E300
3E3E00
1F7C00
07F000
ENDCHAR

STARTCHAR a62
ENCODING 99
SWIDTH 707 0
DWIDTH 17 0
BBX 15 17 1 0
BITMAP
0380
05C0
05C0
64CC
B292
BAA6
8B5E
7FFC
0380
7FFC
F562
CABA
929E
664C
0740
07C0
0380
ENDCHAR

STARTCHAR a63
ENCODING 100
SWIDTH 687 0
DWIDTH 17 0
BBX 15 17 1 0
BITMAP
0100
0540
0540
1390
5114
3118
F93E
0540
0380
0540
F93E
3118
5114
1390
0540
0100
0100
ENDCHAR

STARTCHAR a64
ENCODING 101
SWIDTH 696 0
DWIDTH 17 0
BBX 15 17 1 0
BITMAP
0100
0100
1930
9FF2
D396
3118
3D78
67CC
C386
67CC
3D78
3118
D396
9FF2
1930
0100
0100
ENDCHAR

STARTCHAR a65
ENCODING 102
SWIDTH 689 0
DWIDTH 17 0
BBX 15 17 1 0
BITMAP
0100
0540
07C0
17D0
5BB4
3938
F93E
7D7C
0380
7D7C
F93E
3938
5BB4
17D0
07C0
0540
0100
ENDCHAR

STARTCHAR a66
ENCODING 103
SWIDTH 786 0
DWIDTH 20 0
BBX 18 18 1 0
BITMAP
00C000
40C080
60C180
30C300
18C600
0CCC00
06D800
000000
FEDFC0
FEDFC0
000000
06D800
0CCC00
18C600
30C300
60C180
40C080
00C000
ENDCHAR

STARTCHAR a67
ENCODING 104
SWIDTH 787 0
DWIDTH 20 0
BBX 18 18 1 0
BITMAP
00C000
41E080
61E180
31E300
19E600
0CCC00
06D800
780780
FE9FC0
FEDFC0
780780
06D800
0CCC00
19E600
31E300
61E180
41E080
00C000
ENDCHAR

STARTCHAR a68
ENCODING 105
SWIDTH 688 0
DWIDTH 17 0
BBX 15 18 1 0
BITMAP
0000
0380
07C0
07C0
638C
F11E
F11E
FD7E
67CC
0380
67CC
FD7E
F11E
F11E
638C
07C0
07C0
0380
ENDCHAR

STARTCHAR a69
ENCODING 106
SWIDTH 791 0
DWIDTH 19 0
BBX 17 17 1 0
BITMAP
008000
01C000
11C400
3DDE00
1DDC00
1EBC00
063000
79CF00
FDDF80
79CF00
063000
1EBC00
1DDC00
3DDE00
11C400
01C000
008000
ENDCHAR

STARTCHAR a70
ENCODING 107
SWIDTH 785 0
DWIDTH 19 0
BBX 17 17 1 0
BITMAP
01C000
01C000
39CE00
3DDE00
3DDE00
1EBC00
07F000
FBEF80
FFFF80
FBEF80
07F000
1EBC00
3DDE00
3DDE00
39CE00
01C000
01C000
ENDCHAR

STARTCHAR a71
ENCODING 108
SWIDTH 791 0
DWIDTH 20 0
BBX 18 18 1 0
BITMAP
03F000
0FFC00
3FFF00
3FFF00
7FFF80
7FFF80
FFFFC0
FFFFC0
FFFFC0
FFFFC0
FFFFC0
FFFFC0
7FFF80
7FFF80
3FFF00
3FFF00
0FFC00
03F000
ENDCHAR

STARTCHAR a72
ENCODING 109
SWIDTH 873 0
DWIDTH 21 0
BBX 19 18 1 0
BITMAP
03F800
0E3E00
180F00
200380
6003C0
4001C0
C001E0
8000E0
8000E0
8000E0
8000E0
C001E0
4001C0
6003C0
200380
180F00
0E3E00
03F800
ENDCHAR

STARTCHAR a73
ENCODING 110
SWIDTH 761 0
DWIDTH 20 0
BBX 18 18 1 0
BITMAP
FFFFC0
FFFFC0
FFFFC0
FFFFC0
FFFFC0
FFFFC0
FFFFC0
FFFFC0
FFFFC0
FFFFC0
FFFFC0
FFFFC0
FFFFC0
FFFFC0
FFFFC0
FFFFC0
FFFFC0
FFFFC0
ENDCHAR

STARTCHAR a74
ENCODING 111
SWIDTH 762 0
DWIDTH 19 0
BBX 17 17 1 0
BITMAP
FFFE00
800200
800380
800380
800380
800380
800380
800380
800380
800380
800380
800380
800380
800380
FFFF80
3FFF80
3FFF80
ENDCHAR

STARTCHAR a203
ENCODING 112
SWIDTH 762 0
DWIDTH 19 0
BBX 17 17 1 0
BITMAP
3FFF80
3FFF80
FFFF80
800380
800380
800380
800380
800380
800380
800380
800380
800380
800380
800380
800380
800200
FFFE00
ENDCHAR

STARTCHAR a75
ENCODING 113
SWIDTH 759 0
DWIDTH 19 0
BBX 17 17 1 0
BITMAP
FFFE00
800300
800380
800380
800380
800380
800380
800380
800380
800380
800380
800380
800380
800380
FFFF80
7FFF80
3FFF80
ENDCHAR

STARTCHAR a204
ENCODING 114
SWIDTH 759 0
DWIDTH 19 0
BBX 17 17 1 0
BITMAP
3FFF80
7FFF80
FFFF80
800380
800380
800380
800380
800380
800380
800380
800380
800380
800380
800380
800380
800300
FFFE00
ENDCHAR

STARTCHAR a76
ENCODING 115
SWIDTH 892 0
DWIDTH 21 0
BBX 19 18 1 0
BITMAP
004000
00E000
00E000
01F000
01F000
03F800
03F800
07FC00
07FC00
0FFE00
0FFE00
1FFF00
1FFF00
3FFF80
3FFF80
7FFFC0
7FFFC0
FFFFE0
ENDCHAR

STARTCHAR a77
ENCODING 116
SWIDTH 892 0
DWIDTH 21 0
BBX 19 18 1 0
BITMAP
FFFFE0
7FFFC0
7FFFC0
3FFF80
3FFF80
1FFF00
1FFF00
0FFE00
0FFE00
07FC00
07FC00
03F800
03F800
01F000
01F000
00E000
00E000
004000
ENDCHAR

STARTCHAR a78
ENCODING 117
SWIDTH 788 0
DWIDTH 19 0
BBX 17 18 1 0
BITMAP
008000
01C000
03E000
07F000
0FF800
1FFC00
3FFE00
7FFF00
FFFF80
FFFF80
7FFF00
3FFE00
1FFC00
0FF800
07F000
03E000
01C000
008000
ENDCHAR

STARTCHAR a79
ENCODING 118
SWIDTH 784 0
DWIDTH 19 0
BBX 17 18 1 0
BITMAP
008000
01C000
03E000
07F000
07F000
13E400
39CE00
7C9F00
FE3F80
FE3F80
7C9F00
39CE00
13E400
07F000
07F000
03E000
01C000
008000
ENDCHAR

STARTCHAR a81
ENCODING 119
SWIDTH 438 0
DWIDTH 11 0
BBX 9 18 1 0
BITMAP
E000
F800
FC00
FE00
FF00
FF00
FF00
FF80
FF80
FF80
FF80
FF80
FF00
FF00
FE00
FC00
F800
F000
ENDCHAR

STARTCHAR a82
ENCODING 120
SWIDTH 138 0
DWIDTH 4 0
BBX 2 18 1 0
BITMAP
C0
C0
C0
C0
C0
C0
C0
C0
C0
C0
C0
C0
C0
C0
C0
C0
C0
C0
ENDCHAR

STARTCHAR a83
ENCODING 121
SWIDTH 277 0
DWIDTH 7 0
BBX 5 18 1 0
BITMAP
F8
F8
F8
F8
F8
F8
F8
F8
F8
F8
F8
F8
F8
F8
F8
F8
F8
F8
ENDCHAR

STARTCHAR a84
ENCODING 122
SWIDTH 415 0
DWIDTH 10 0
BBX 8 18 1 0
BITMAP
FF
FF
FF
FF
FF
FF
FF
FF
FF
FF
FF
FF
FF
FF
FF
FF
FF
FF
ENDCHAR

STARTCHAR a97
ENCODING 123
SWIDTH 392 0
DWIDTH 10 0
BBX 8 11 1 7
BITMAP
0E
38
60
6C
FE
FF
FF
FF
FF
7E
3C
ENDCHAR

STARTCHAR a98
ENCODING 124
SWIDTH 392 0
DWIDTH 10 0
BBX 8 12 1 6
BITMAP
3C
7E
FF
FF
FF
FF
7F
36
06
0C
38
E0
ENDCHAR

STARTCHAR a99
ENCODING 125
SWIDTH 668 0
DWIDTH 16 0
BBX 14 11 1 7
BITMAP
071C
1C70
30C0
6180
EDB0
FFF8
FFFC
FFFC
FFFC
7FF8
3CF0
ENDCHAR

STARTCHAR a100
ENCODING 126
SWIDTH 668 0
DWIDTH 16 0
BBX 14 12 1 6
BITMAP
3CF0
7FF8
FFFC
FFFC
FFFC
FFFC
7FFC
36D8
0618
0C30
3860
E1C0
ENDCHAR

STARTCHAR a101
ENCODING 161
SWIDTH 732 0
DWIDTH 17 0
BBX 15 24 1 -4
BITMAP
0030
0030
0FFE
3FFE
7F30
7F30
FF30
FF30
FF30
FF30
7F30
7F30
3FB0
0FF0
0030
0030
0030
1C30
3E30
3E30
3C70
3860
1DC0
0F80
ENDCHAR

STARTCHAR a102
ENCODING 162
SWIDTH 544 0
DWIDTH 13 0
BBX 11 18 1 0
BITMAP
1F00
7FC0
FFE0
FFE0
FFE0
FFE0
7FC0
1F00
0E00
0400
0400
0E00
1F00
3F80
3F80
3F80
1F00
0E00
ENDCHAR

STARTCHAR a103
ENCODING 163
SWIDTH 544 0
DWIDTH 13 0
BBX 11 18 1 0
BITMAP
71C0
FBE0
FFE0
FFE0
FFE0
7FC0
3F80
1F00
0E00
0400
0400
0E00
1F00
3F80
3F80
3F80
1F00
0E00
ENDCHAR

STARTCHAR a104
ENCODING 164
SWIDTH 910 0
DWIDTH 22 0
BBX 20 15 1 1
BITMAP
1E0780
7F9FE0
7F9FE0
FFFFF0
FFFFF0
FFFFF0
FFFFF0
7FFFE0
7FFFE0
1FFF80
0FFF00
03FC00
00F000
006000
006000
ENDCHAR

STARTCHAR a106
ENCODING 165
SWIDTH 667 0
DWIDTH 16 0
BBX 14 18 1 0
BITMAP
3C00
7E00
FF00
FF80
FF80
FFC0
7FE0
7FF0
1FFC
1FFC
7FF0
FFE0
FFC0
FF80
FF80
FF00
7E00
3C00
ENDCHAR

STARTCHAR a107
ENCODING 166
SWIDTH 760 0
DWIDTH 18 0
BBX 16 18 1 0
BITMAP
19C6
7F67
C323
81E3
E066
60DC
0E80
1F38
1F7C
3FFC
3FFC
3FFC
1FF8
1FE0
0F88
071C
039C
00F8
ENDCHAR

STARTCHAR a108
ENCODING 167
SWIDTH 760 0
DWIDTH 20 0
BBX 18 12 1 3
BITMAP
300000
60F000
71F800
39F800
0FFC00
3BFC00
49FC40
53FCC0
E3FEC0
CBFF80
79FE00
30F800
ENDCHAR

STARTCHAR a112
ENCODING 168
SWIDTH 776 0
DWIDTH 19 0
BBX 17 18 1 0
BITMAP
01C000
07F000
0FF800
0FF800
0FF800
07F000
3BEE00
7FFF00
FFFF80
FFFF80
FFFF80
FFFF80
7EBF00
3C9E00
008000
01C000
03E000
0FF800
ENDCHAR

STARTCHAR a111
ENCODING 169
SWIDTH 595 0
DWIDTH 14 0
BBX 12 18 1 0
BITMAP
0600
0600
0F00
0F00
1F80
3FC0
3FC0
7FE0
FFF0
FFF0
7FE0
3FC0
3FC0
1F80
0F00
0F00
0600
0600
ENDCHAR

STARTCHAR a110
ENCODING 170
SWIDTH 694 0
DWIDTH 17 0
BBX 15 17 1 1
BITMAP
3C78
7EFC
FEFE
FFFE
FFFE
FFFE
7FFC
7FFC
3FF8
1FF0
1FF0
0FE0
07C0
0380
0380
0100
0100
ENDCHAR

STARTCHAR a109
ENCODING 171
SWIDTH 626 0
DWIDTH 17 0
BBX 15 18 1 0
BITMAP
0100
0100
0380
0380
07C0
0FE0
3FF8
7FFC
FFFE
FFFE
FFFE
FFFE
7FFC
3D78
0100
0380
07C0
3FF8
ENDCHAR

STARTCHAR a120
ENCODING 172
SWIDTH 788 0
DWIDTH 20 0
BBX 18 18 1 0
BITMAP
03F000
0E1C00
380700
20E100
61E180
47E080
C0E0C0
80E040
80E040
80E040
80E040
C0E0C0
40E080
60E180
27F900
380700
0E1C00
03F000
ENDCHAR

STARTCHAR a121
ENCODING 173
SWIDTH 788 0
DWIDTH 20 0
BBX 18 18 1 0
BITMAP
03F000
0E1C00
380700
21F100
633980
471C80
C71CC0
821C40
803840
807040
81C040
C304C0
460C80
67FD80
27F900
380700
0E1C00
03F000
ENDCHAR

STARTCHAR a122
ENCODING 174
SWIDTH 788 0
DWIDTH 20 0
BBX 18 18 1 0
BITMAP
03F000
0E0C00
380300
21F100
633980
471C80
C61CC0
803840
80E040
803840
801C40
C21CC0
471C80
673980
23F100
380700
0E1C00
03F000
ENDCHAR

STARTCHAR a123
ENCODING 175
SWIDTH 788 0
DWIDTH 20 0
BBX 18 18 1 0
BITMAP
03F000
0E0C00
380700
20E100
60F180
417080
C270C0
827040
847040
887040
8FFC40
CFFCC0
407080
607180
21FD00
380700
0E1C00
03F000
ENDCHAR

STARTCHAR a124
ENCODING 176
SWIDTH 788 0
DWIDTH 20 0
BBX 18 18 1 0
BITMAP
03F000
0E1C00
300300
27F900
67F980
460080
C600C0
860040
87F040
803840
801C40
C61CC0
471C80
673980
23F100
300700
0E1C00
03F000
ENDCHAR

STARTCHAR a125
ENCODING 177
SWIDTH 788 0
DWIDTH 20 0
BBX 18 18 1 0
BITMAP
03F000
0E0C00
380300
21F100
631980
461C80
C608C0
8E0040
8EF040
8F3C40
8E1C40
CE1CC0
461C80
673980
21F100
380700
0E1C00
03F000
ENDCHAR

STARTCHAR a126
ENCODING 178
SWIDTH 788 0
DWIDTH 20 0
BBX 18 18 1 0
BITMAP
03F000
0C0C00
300300
27F900
67F980
441880
C410C0
803040
806040
806040
80C040
C0C0C0
41C080
61C180
21C100
380700
0E1C00
03F000
ENDCHAR

STARTCHAR a127
ENCODING 179
SWIDTH 788 0
DWIDTH 20 0
BBX 18 18 1 0
BITMAP
03F000
0E0C00
380300
21F900
639D80
470C80
C70CC0
839840
81F040
83F840
873C40
C61CC0
461C80
633980
21F100
380700
0E1C00
03F000
ENDCHAR

STARTCHAR a128
ENCODING 180
SWIDTH 788 0
DWIDTH 20 0
BBX 18 18 1 0
BITMAP
03F000
0E0C00
380300
21E100
673980
461880
CE1CC0
8E1C40
873C40
83DC40
801C40
C01CC0
461880
673980
23F100
380700
0E1C00
03F000
ENDCHAR

STARTCHAR a129
ENCODING 181
SWIDTH 788 0
DWIDTH 20 0
BBX 18 18 1 0
BITMAP
03F000
0E1C00
380300
263900
6E6C80
5ECE80
CECEC0
8ECE40
8ECE40
8ECE40
8ECE40
CECEC0
4ECE80
6E6D80
2F3900
300700
0E1C00
03F000
ENDCHAR

STARTCHAR a130
ENCODING 182
SWIDTH 788 0
DWIDTH 20 0
BBX 18 18 1 0
BITMAP
03F000
0FFC00
3FFF00
3F1F00
7E1F80
781F80
FF1FC0
FF1FC0
FF1FC0
FF1FC0
FF1FC0
FF1FC0
7F1F80
7F1F80
3C0700
3FFF00
0FFC00
03F000
ENDCHAR

STARTCHAR a131
ENCODING 183
SWIDTH 788 0
DWIDTH 20 0
BBX 18 18 1 0
BITMAP
03F000
0FFC00
3FFF00
3E1F00
7CC780
78E380
F8E3C0
FDE3C0
FFC7C0
FF8FC0
FE3FC0
FCFBC0
79F380
780380
380700
3FFF00
0FFC00
03F000
ENDCHAR

STARTCHAR a132
ENCODING 184
SWIDTH 788 0
DWIDTH 20 0
BBX 18 18 1 0
BITMAP
03F000
0FFC00
3FFF00
3E0F00
7CC780
78E380
F9E3C0
FFC7C0
FF1FC0
FFC7C0
FFE3C0
FDE3C0
78E380
78C780
3C0F00
3FFF00
0FFC00
03F000
ENDCHAR

STARTCHAR a133
ENCODING 185
SWIDTH 788 0
DWIDTH 20 0
BBX 18 18 1 0
BITMAP
03F000
0FFC00
3FFF00
3F1F00
7F0F80
7E8F80
FD8FC0
FD8FC0
FB8FC0
F78FC0
F003C0
F003C0
7F8F80
7F8F80
3E0300
3FFF00
0FFC00
03F000
ENDCHAR

STARTCHAR a134
ENCODING 186
SWIDTH 788 0
DWIDTH 20 0
BBX 18 18 1 0
BITMAP
03F000
0FFC00
3FFF00
380700
780780
79FF80
F9FFC0
F9FFC0
F80FC0
FFC7C0
FFE3C0
F9E3C0
78E380
78C780
3C0F00
3FFF00
0FFC00
03F000
ENDCHAR

STARTCHAR a135
ENCODING 187
SWIDTH 788 0
DWIDTH 20 0
BBX 18 18 1 0
BITMAP
03F000
0FFC00
3FFF00
3E0F00
7CE780
79E380
F9F7C0
F1FFC0
F10FC0
F0C3C0
F1E3C0
F1E3C0
79E380
78C780
3E0F00
3FFF00
0FFC00
03F000
ENDCHAR

STARTCHAR a136
ENCODING 188
SWIDTH 788 0
DWIDTH 20 0
BBX 18 18 1 0
BITMAP
03F000
0FFC00
3FFF00
380300
780780
7BE780
FBEFC0
FFCFC0
FF9FC0
FF9FC0
FF3FC0
FF3FC0
7E3F80
7E3F80
3E3F00
3FFF00
0FFC00
03F000
ENDCHAR

STARTCHAR a137
ENCODING 189
SWIDTH 788 0
DWIDTH 20 0
BBX 18 18 1 0
BITMAP
03F000
0FFC00
3FFF00
3E0700
7C6380
78F380
F8F3C0
FC67C0
FE0FC0
FC07C0
F8C3C0
F9E3C0
79E380
7CC780
3E0F00
3FFF00
0FFC00
03F000
ENDCHAR

STARTCHAR a138
ENCODING 190
SWIDTH 788 0
DWIDTH 20 0
BBX 18 18 1 0
BITMAP
03F000
0FFC00
3FFF00
3E1F00
78C780
79E780
F1E3C0
F1E3C0
F8C3C0
FC23C0
FFE3C0
FFE3C0
79E780
78C780
3C0F00
3FFF00
0FFC00
03F000
ENDCHAR

STARTCHAR a139
ENCODING 191
SWIDTH 788 0
DWIDTH 20 0
BBX 18 18 1 0
BITMAP
03F000
0FFC00
3FFF00
3DC700
799380
613980
F939C0
F939C0
F939C0
F939C0
F939C0
F939C0
793980
799380
20C700
3FFF00
0FFC00
03F000
ENDCHAR

STARTCHAR a140
ENCODING 192
SWIDTH 788 0
DWIDTH 20 0
BBX 18 18 1 0
BITMAP
03F000
0E1C00
380700
20C100
61C180
47C080
C0C0C0
80C040
80C040
80C040
80C040
C0C0C0
40C080
60C180
20C100
380700
0E1C00
03F000
ENDCHAR

STARTCHAR a141
ENCODING 193
SWIDTH 788 0
DWIDTH 20 0
BBX 18 18 1 0
BITMAP
03F000
0E0C00
380700
21E100
63F180
473880
C618C0
801840
803040
806040
80C040
C180C0
430080
67F980
27F900
300700
0E1C00
03F000
ENDCHAR

STARTCHAR a142
ENCODING 194
SWIDTH 788 0
DWIDTH 20 0
BBX 18 18 1 0
BITMAP
03F000
0C0C00
380700
21E100
63F180
473880
C618C0
803840
80F040
807040
801840
C618C0
473880
63F180
21E100
380700
0E1C00
03F000
ENDCHAR

STARTCHAR a143
ENCODING 195
SWIDTH 788 0
DWIDTH 20 0
BBX 18 18 1 0
BITMAP
03F000
0E0C00
380700
20E100
60E180
41E080
C160C0
836040
866040
866040
8C6040
CFF8C0
4FF880
606180
206100
380700
0E1C00
03F000
ENDCHAR

STARTCHAR a144
ENCODING 196
SWIDTH 788 0
DWIDTH 20 0
BBX 18 18 1 0
BITMAP
03F000
0E1C00
300700
27F100
67F180
460080
C600C0
87E040
87F040
863840
801840
C018C0
463880
67F180
23E100
380700
0E1C00
03F000
ENDCHAR

STARTCHAR a145
ENCODING 197
SWIDTH 788 0
DWIDTH 20 0
BBX 18 18 1 0
BITMAP
03F000
0C0C00
380700
21E100
63F180
473880
C618C0
86C040
87F040
873840
861840
C618C0
473880
63F180
21E100
380700
0E1C00
03F000
ENDCHAR

STARTCHAR a146
ENCODING 198
SWIDTH 788 0
DWIDTH 20 0
BBX 18 18 1 0
BITMAP
03F000
0E1C00
300300
27F900
67F980
401880
C030C0
803040
806040
80E040
80C040
C0C0C0
418080
618180
218100
380700
0E1C00
03F000
ENDCHAR

STARTCHAR a147
ENCODING 199
SWIDTH 788 0
DWIDTH 20 0
BBX 18 18 1 0
BITMAP
03F000
0C0C00
380700
21E100
63F180
473880
C618C0
873840
81E040
83F040
873840
C618C0
473880
63F180
21E100
380700
0E1C00
03F000
ENDCHAR

STARTCHAR a148
ENCODING 200
SWIDTH 788 0
DWIDTH 20 0
BBX 18 18 1 0
BITMAP
03F000
0C0C00
380700
21E100
63F180
473080
C618C0
861840
873840
83F840
81D840
C018C0
463080
67F180
23E100
380700
0E1C00
03F000
ENDCHAR

STARTCHAR a149
ENCODING 201
SWIDTH 788 0
DWIDTH 20 0
BBX 18 18 1 0
BITMAP
03F000
0E1C00
300300
263900
4E6C80
5EC680
C6C6C0
86C640
86C640
86C640
86C640
C6C6C0
46C680
666C80
263900
300300
0E1C00
03F000
ENDCHAR

STARTCHAR a150
ENCODING 202
SWIDTH 788 0
DWIDTH 20 0
BBX 17 18 1 0
BITMAP
03E000
0FF800
3FFE00
3F3E00
7E3F00
F83F80
FF3F80
FF3F80
FF3F80
FF3F80
FF3F80
FF3F80
FF3F80
7F3F00
7F3E00
3FFE00
1FF800
07F000
ENDCHAR

STARTCHAR a151
ENCODING 203
SWIDTH 788 0
DWIDTH 20 0
BBX 18 18 1 0
BITMAP
03F000
0FFC00
3FFF00
3E1F00
7C0F80
78C780
F9E7C0
FFE7C0
FFCFC0
FF9FC0
FF3FC0
FE7FC0
7CFF80
780780
380700
3FFF00
0FFC00
03F000
ENDCHAR

STARTCHAR a152
ENCODING 204
SWIDTH 788 0
DWIDTH 20 0
BBX 18 18 1 0
BITMAP
03F000
0FFC00
3FFF00
3E1F00
7C0F80
78C780
F9E7C0
FFC7C0
FF0FC0
FF8FC0
FFE7C0
F9E7C0
78C780
7C0F80
3E1F00
3FFF00
0FFC00
03F000
ENDCHAR

STARTCHAR a153
ENCODING 205
SWIDTH 788 0
DWIDTH 20 0
BBX 18 18 1 0
BITMAP
03F000
0FFC00
3FFF00
3F1F00
7F1F80
7E1F80
FE9FC0
FC9FC0
F99FC0
F99FC0
F39FC0
F007C0
700780
7F9F80
3F9F00
3FFF00
0FFC00
03F000
ENDCHAR

STARTCHAR a154
ENCODING 206
SWIDTH 788 0
DWIDTH 20 0
BBX 18 18 1 0
BITMAP
03F000
0FFC00
3FFF00
380F00
780F80
79FF80
F9FFC0
F81FC0
F80FC0
F9C7C0
FFE7C0
FFE7C0
79C780
780F80
3C1F00
3FFF00
0FFC00
03F000
ENDCHAR

STARTCHAR a155
ENCODING 207
SWIDTH 788 0
DWIDTH 20 0
BBX 18 18 1 0
BITMAP
03F000
0FFC00
3FFF00
3E1F00
7C0F80
78C780
F9E7C0
F93FC0
F80FC0
F8C7C0
F9E7C0
F9E7C0
78C780
7C0F80
3E1F00
3FFF00
0FFC00
03F000
ENDCHAR

STARTCHAR a156
ENCODING 208
SWIDTH 788 0
DWIDTH 20 0
BBX 18 18 1 0
BITMAP
03F000
0FFC00
3FFF00
380700
780780
7FE780
FFCFC0
FFCFC0
FF9FC0
FF1FC0
FF3FC0
FF3FC0
7E7F80
7E7F80
3E7F00
3FFF00
0FFC00
03F000
ENDCHAR

STARTCHAR a157
ENCODING 209
SWIDTH 788 0
DWIDTH 20 0
BBX 18 18 1 0
BITMAP
03F000
0FFC00
3FFF00
3E1F00
7C0F80
78C780
F9E7C0
F8C7C0
FE1FC0
FC0FC0
F8C7C0
F9E7C0
78C780
7C0F80
3E1F00
3FFF00
0FFC00
03F000
ENDCHAR

STARTCHAR a158
ENCODING 210
SWIDTH 788 0
DWIDTH 20 0
BBX 18 18 1 0
BITMAP
03F000
0FFC00
3FFF00
3E1F00
7C0F80
78C780
F9E7C0
F9E7C0
F8C7C0
FC07C0
FE27C0
FFE7C0
79CF80
780F80
3C1F00
3FFF00
0FFC00
03F000
ENDCHAR

STARTCHAR a159
ENCODING 211
SWIDTH 788 0
DWIDTH 20 0
BBX 18 18 1 0
BITMAP
03F000
0FFC00
3FFF00
39C700
719380
613980
F939C0
F939C0
F939C0
F939C0
F939C0
F939C0
793980
799380
39C700
3FFF00
0FFC00
03F000
ENDCHAR

STARTCHAR a160
ENCODING 212
SWIDTH 894 0
DWIDTH 22 0
BBX 20 15 1 1
BITMAP
007800
007C00
003E00
001F00
000F80
0007C0
FFFFE0
FFFFF0
FFFFE0
0007C0
000F80
001F00
003E00
007C00
007800
ENDCHAR

STARTCHAR a161
ENCODING 213
SWIDTH 838 0
DWIDTH 20 0
BBX 18 7 1 5
BITMAP
000800
000E00
000780
FFFFC0
000780
000E00
000800
ENDCHAR

STARTCHAR a163
ENCODING 214
SWIDTH 1016 0
DWIDTH 24 0
BBX 22 7 1 5
BITMAP
040080
1C00E0
780078
FFFFFC
780078
1C00E0
040080
ENDCHAR

STARTCHAR a164
ENCODING 215
SWIDTH 458 0
DWIDTH 9 0
BBX 7 22 1 -3
BITMAP
10
38
38
7C
7C
D6
10
10
10
10
10
10
10
10
10
10
D6
7C
7C
38
38
10
ENDCHAR

STARTCHAR a196
ENCODING 216
SWIDTH 733 0
DWIDTH 14 0
BBX 12 12 1 3
BITMAP
C000
E000
7000
3800
1C00
0E10
0730
03F0
01F0
01F0
03F0
07F0
ENDCHAR

STARTCHAR a165
ENCODING 217
SWIDTH 924 0
DWIDTH 23 0
BBX 21 9 1 4
BITMAP
001800
000E00
FE0780
FFF7E0
FFFFF8
FFF7E0
FE0780
000E00
001800
ENDCHAR

STARTCHAR a192
ENCODING 218
SWIDTH 927 0
DWIDTH 14 0
BBX 12 12 1 3
BITMAP
07F0
03F0
01F0
01F0
03F0
0730
0E10
1C00
3800
7000
E000
C000
ENDCHAR

STARTCHAR a166
ENCODING 219
SWIDTH 918 0
DWIDTH 22 0
BBX 20 9 1 4
BITMAP
018000
00E000
00FC00
007F80
FFFFF0
007F80
00FC00
00E000
018000
ENDCHAR

STARTCHAR a167
ENCODING 220
SWIDTH 927 0
DWIDTH 23 0
BBX 21 15 1 1
BITMAP
001C00
003E00
003F00
001F80
000FC0
7FFFE0
FFFFF0
FFFFF8
FFFFF0
7FFFE0
000FC0
001F80
003F00
003E00
001C00
ENDCHAR

STARTCHAR a168
ENCODING 221
SWIDTH 928 0
DWIDTH 22 0
BBX 20 11 1 3
BITMAP
000200
000300
000380
0003C0
0003E0
FFFFF0
0003E0
0003C0
000380
000300
000200
ENDCHAR

STARTCHAR a169
ENCODING 222
SWIDTH 928 0
DWIDTH 22 0
BBX 20 9 1 4
BITMAP
000100
000180
0001C0
FFFFE0
FFFFF0
FFFFE0
0001C0
000180
000100
ENDCHAR

STARTCHAR a170
ENCODING 223
SWIDTH 834 0
DWIDTH 19 0
BBX 17 8 1 5
BITMAP
000C00
000E00
ADFF00
ADFF80
ADFF80
ADFF00
000E00
000C00
ENDCHAR

STARTCHAR a171
ENCODING 224
SWIDTH 803 0
DWIDTH 20 0
BBX 19 13 0 2
BITMAP
000800
000C00
000E00
B77F00
B77F80
B77FC0
B77FE0
B77FC0
B77F80
B77F00
000E00
000C00
000800
ENDCHAR

STARTCHAR a172
ENCODING 225
SWIDTH 828 0
DWIDTH 20 0
BBX 18 11 1 3
BITMAP
000800
000C00
FFFE00
FFFF00
FFFF80
FFFFC0
FFFF80
FFFF00
FFFE00
000C00
000800
ENDCHAR

STARTCHAR a173
ENCODING 226
SWIDTH 862 0
DWIDTH 22 0
BBX 20 13 1 2
BITMAP
E00000
7C0000
378000
18F000
0E1E00
0703C0
03FFF0
03FFC0
07FE00
1FF000
3F8000
7C0000
E00000
ENDCHAR

STARTCHAR a162
ENCODING 227
SWIDTH 838 0
DWIDTH 22 0
BBX 20 13 1 2
BITMAP
E00000
7C0000
3F8000
1FF000
07FE00
03FFC0
03FFF0
0703C0
0E1E00
18F000
378000
7C0000
E00000
ENDCHAR

STARTCHAR a174
ENCODING 228
SWIDTH 847 0
DWIDTH 21 0
BBX 19 17 1 0
BITMAP
C00000
F00000
7C0000
7F0000
3FC000
3FF800
1FFE00
1FFF80
0FFFE0
1FFF80
1FFE00
3FF800
3FC000
7F0000
7C0000
F00000
C00000
ENDCHAR

STARTCHAR a175
ENCODING 229
SWIDTH 930 0
DWIDTH 22 0
BBX 20 14 1 1
BITMAP
C00000
C00800
C00C00
E00E00
FFFF80
FFFFC0
FFFFE0
FFFFF0
FFFFE0
7FFFC0
1FFF80
000E00
000C00
000800
ENDCHAR

STARTCHAR a176
ENCODING 230
SWIDTH 861 0
DWIDTH 22 0
BBX 20 14 1 2
BITMAP
000800
000C00
000E00
3FFF80
7FFFC0
FFFFE0
FFFFF0
FFFFE0
FFFFC0
FFFF80
E00E00
C00C00
C00800
C00000
ENDCHAR

STARTCHAR a177
ENCODING 231
SWIDTH 463 0
DWIDTH 12 0
BBX 10 19 1 0
BITMAP
1000
1800
F800
FC00
FE00
FE00
FF00
FF00
FF80
FFC0
FF80
FF00
FF00
FE00
FE00
FC00
F800
1800
1000
ENDCHAR

STARTCHAR a178
ENCODING 232
SWIDTH 883 0
DWIDTH 21 0
BBX 19 17 1 0
BITMAP
004000
004000
006000
006000
FFF000
FFF800
FFFE00
FFFF80
FFFFE0
FFFF80
FFFE00
FFF800
FFF000
006000
006000
004000
004000
ENDCHAR

STARTCHAR a179
ENCODING 233
SWIDTH 836 0
DWIDTH 20 0
BBX 18 15 1 1
BITMAP
00E000
00F000
00B800
009C00
FF8E00
800700
800380
8001C0
800380
800700
FF8E00
009C00
00B800
00F000
00E000
ENDCHAR

STARTCHAR a193
ENCODING 234
SWIDTH 836 0
DWIDTH 20 0
BBX 18 15 1 1
BITMAP
00E000
00F000
00D800
00CC00
FFC600
C00300
C00180
C000C0
C00180
C00300
FFC600
00CC00
00D800
00F000
00E000
ENDCHAR

STARTCHAR a180
ENCODING 235
SWIDTH 797 0
DWIDTH 21 0
BBX 20 12 0 3
BITMAP
000100
000380
07FEC0
0C0060
180030
3000F0
6003F0
FFCFE0
FFFF80
FFFE00
003800
002000
ENDCHAR

STARTCHAR a199
ENCODING 236
SWIDTH 797 0
DWIDTH 21 0
BBX 20 12 0 3
BITMAP
002000
003800
FFFE00
FFFF80
FFCFE0
6003F0
3000F0
180030
0C0060
07FEC0
000380
000100
ENDCHAR

STARTCHAR a181
ENCODING 237
SWIDTH 626 0
DWIDTH 17 0
BBX 15 18 1 0
BITMAP
0200
0300
0380
02C0
FE60
8030
8018
800C
8006
800E
801C
8038
FE70
7EE0
03C0
0380
0300
0200
ENDCHAR

STARTCHAR a200
ENCODING 238
SWIDTH 626 0
DWIDTH 17 0
BBX 15 18 1 0
BITMAP
0200
0300
0380
03C0
7EE0
FE70
8038
801C
800E
8006
800C
8018
8030
FE60
02C0
0380
0300
0200
ENDCHAR

STARTCHAR a182
ENCODING 239
SWIDTH 874 0
DWIDTH 21 0
BBX 19 15 1 2
BITMAP
001000
001800
001C00
FFF600
800300
400180
2000C0
100060
2000E0
4001C0
800380
FFF700
FFFE00
000C00
000800
ENDCHAR

STARTCHAR a201
ENCODING 241
SWIDTH 874 0
DWIDTH 21 0
BBX 19 15 1 2
BITMAP
000800
000C00
FFFE00
FFF700
800380
4001C0
2000E0
100060
2000C0
400180
800300
FFF600
001C00
001800
001000
ENDCHAR

STARTCHAR a183
ENCODING 242
SWIDTH 760 0
DWIDTH 18 0
BBX 16 17 1 0
BITMAP
1FE0
7FF8
FF7C
FF3E
001E
000F
0007
0003
0001
0003
0007
000F
001E
FF3E
FF7C
7FF8
1FE0
ENDCHAR

STARTCHAR a184
ENCODING 243
SWIDTH 946 0
DWIDTH 22 0
BBX 20 11 1 3
BITMAP
FE0000
550100
2A8180
1541C0
0AA1E0
07FFF0
0AA1E0
1541C0
2A8180
550100
FE0000
ENDCHAR

STARTCHAR a197
ENCODING 244
SWIDTH 771 0
DWIDTH 18 0
BBX 17 17 0 0
BITMAP
040000
060000
070000
078000
07C000
FBE000
7DE000
3EE000
1F6000
0FA000
07E000
001000
000880
000580
000380
000780
000F80
ENDCHAR

STARTCHAR a185
ENCODING 245
SWIDTH 865 0
DWIDTH 20 0
BBX 18 7 1 5
BITMAP
FF0200
7F8300
3FC380
003FC0
3FC380
7F8300
FF0200
ENDCHAR

STARTCHAR a194
ENCODING 246
SWIDTH 883 0
DWIDTH 19 0
BBX 17 17 1 0
BITMAP
000F80
000780
000380
000580
000880
001000
07E000
0FA000
1F6000
3EE000
7DE000
FBE000
07C000
078000
070000
060000
040000
ENDCHAR

STARTCHAR a198
ENCODING 247
SWIDTH 888 0
DWIDTH 21 0
BBX 19 18 1 0
BITMAP
060000
070000
078000
07C000
07E000
FFE000
FFE000
7FE000
3FE000
1FE000
0FF000
001820
000C60
000660
0003E0
0001E0
0007E0
000FE0
ENDCHAR

STARTCHAR a186
ENCODING 248
SWIDTH 967 0
DWIDTH 22 0
BBX 20 11 1 3
BITMAP
FF0000
FF0100
7F0180
7F80C0
3FC0E0
1FFFF0
3FC0E0
7F80C0
7F0180
FF0100
FF0000
ENDCHAR

STARTCHAR a195
ENCODING 249
SWIDTH 872 0
DWIDTH 21 0
BBX 19 18 1 0
BITMAP
000FE0
0007E0
0001E0
0003E0
000660
000C60
001820
0FF000
1FE000
3FE000
7FE000
FFE000
FFE000
07E000
07C000
078000
070000
060000
ENDCHAR

STARTCHAR a187
ENCODING 250
SWIDTH 831 0
DWIDTH 20 0
BBX 18 12 1 3
BITMAP
003000
007800
007C00
783E00
FE0F00
FFFFC0
FFFFC0
FE0700
783E00
007C00
007800
003000
ENDCHAR

STARTCHAR a188
ENCODING 251
SWIDTH 873 0
DWIDTH 21 0
BBX 19 11 1 3
BITMAP
000400
1C0E00
3E0F00
7F8F80
7FC7C0
FFFFE0
7FC7C0
7F8F80
3E0F00
1C0E00
000400
ENDCHAR

STARTCHAR a189
ENCODING 252
SWIDTH 927 0
DWIDTH 22 0
BBX 20 11 1 3
BITMAP
7E0300
FF0380
FF83C0
7FC3E0
3FFFF0
1FFFF0
3FFFF0
7FC3E0
FF83C0
FF0380
7E0300
ENDCHAR

STARTCHAR a190
ENCODING 253
SWIDTH 970 0
DWIDTH 23 0
BBX 21 14 1 2
BITMAP
7F8000
FFC300
FFE380
FFE3C0
FFF3E0
7FFFF0
3FFFF8
3FFFF8
7FFFF0
FFF3E0
FFE3C0
FFE380
FFC300
7F8000
ENDCHAR

STARTCHAR a191
ENCODING 254
SWIDTH 918 0
DWIDTH 22 0
BBX 20 12 1 3
BITMAP
006600
003300
001980
000CC0
FFFE60
000030
000030
FFFE60
000CC0
001980
003300
006600
ENDCHAR
ENDFONT
